<svg width="32" height="29" viewBox="0 0 32 29" fill="none" xmlns="http://www.w3.org/2000/svg">
<path d="M19.2382 12.6792H17.6366V11.0597C17.6366 10.6302 17.4679 10.2183 17.1675 9.91456C16.8671 9.61085 16.4598 9.44022 16.035 9.44022C15.6102 9.44022 15.2029 9.61085 14.9025 9.91456C14.6022 10.2183 14.4334 10.6302 14.4334 11.0597V12.6792H12.8319C12.4071 12.6792 11.9997 12.8499 11.6994 13.1536C11.399 13.4573 11.2303 13.8692 11.2303 14.2987C11.2303 14.7283 11.399 15.1402 11.6994 15.4439C11.9997 15.7476 12.4071 15.9182 12.8319 15.9182H14.4334V17.5378C14.4334 17.9673 14.6022 18.3792 14.9025 18.6829C15.2029 18.9866 15.6102 19.1573 16.035 19.1573C16.4598 19.1573 16.8671 18.9866 17.1675 18.6829C17.4679 18.3792 17.6366 17.9673 17.6366 17.5378V15.9182H19.2382C19.6629 15.9182 20.0703 15.7476 20.3707 15.4439C20.671 15.1402 20.8398 14.7283 20.8398 14.2987C20.8398 13.8692 20.671 13.4573 20.3707 13.1536C20.0703 12.8499 19.6629 12.6792 19.2382 12.6792ZM29.1039 2.96219C27.3961 1.25313 25.1405 0.217568 22.7441 0.0423558C20.3476 -0.132857 17.9681 0.563823 16.035 2.00668C13.9973 0.474044 11.4609 -0.220928 8.93668 0.0617179C6.41248 0.344364 4.08793 1.58363 2.43115 3.52997C0.774366 5.4763 -0.0915838 7.98513 0.00768023 10.5512C0.106944 13.1173 1.16405 15.5501 2.96612 17.3596L12.5756 27.1576C13.4765 28.0675 14.6977 28.5785 15.971 28.5785C17.2442 28.5785 18.4654 28.0675 19.3663 27.1576L28.9758 17.3596C29.9222 16.4246 30.6766 15.3096 31.1955 14.0789C31.7144 12.8481 31.9877 11.5257 31.9996 10.1878C32.0115 8.84992 31.7618 7.52282 31.2649 6.2828C30.7679 5.04278 30.0335 3.91429 29.1039 2.96219ZM26.8457 15.0437L17.2362 24.7607C17.0873 24.9125 16.9102 25.033 16.715 25.1152C16.5198 25.1975 16.3105 25.2398 16.0991 25.2398C15.8876 25.2398 15.6783 25.1975 15.4831 25.1152C15.288 25.033 15.1108 24.9125 14.962 24.7607L5.35247 15.0437C4.09645 13.7454 3.39312 12.0014 3.39312 10.1852C3.39312 8.36897 4.09645 6.62496 5.35247 5.32667C6.63238 4.04886 8.35859 3.33236 10.1572 3.33236C11.9558 3.33236 13.682 4.04886 14.962 5.32667C15.1108 5.47847 15.288 5.59895 15.4831 5.68117C15.6783 5.76339 15.8876 5.80572 16.0991 5.80572C16.3105 5.80572 16.5198 5.76339 16.715 5.68117C16.9102 5.59895 17.0873 5.47847 17.2362 5.32667C18.5161 4.04886 20.2423 3.33236 22.0409 3.33236C23.8396 3.33236 25.5658 4.04886 26.8457 5.32667C28.1113 6.6264 28.8208 8.37731 28.8208 10.2014C28.8208 12.0255 28.1113 13.7764 26.8457 15.0761V15.0437Z" fill="white"/>
</svg>
