<svg width="60" height="60" viewBox="0 0 60 60" fill="none" xmlns="http://www.w3.org/2000/svg">
<path d="M22.5 60C19.6667 60 17.2222 59.0133 15.1667 57.04C13.1111 55.0667 11.9444 52.6933 11.6667 49.92C8.33333 49.4733 5.55556 48 3.33333 45.5C1.11111 43 0 40.0556 0 36.6667C0 35.5 0.153333 34.3478 0.46 33.21C0.766667 32.0722 1.22444 31.0022 1.83333 30C1.22222 29 0.764444 27.9444 0.46 26.8333C0.155556 25.7222 0.00222222 24.5556 0 23.3333C0 19.9444 1.11111 17.0144 3.33333 14.5433C5.55556 12.0722 8.30556 10.6133 11.5833 10.1667C11.75 7.33333 12.8889 4.93111 15 2.96C17.1111 0.988889 19.6111 0.00222222 22.5 0C23.9444 0 25.2922 0.277778 26.5433 0.833333C27.7944 1.38889 28.9467 2.13889 30 3.08333C31 2.13889 32.1389 1.38889 33.4167 0.833333C34.6944 0.277778 36.0556 0 37.5 0C40.3889 0 42.8756 0.972222 44.96 2.91667C47.0444 4.86111 48.1689 7.25 48.3333 10.0833C51.6111 10.5278 54.3756 12 56.6267 14.5C58.8778 17 60.0022 19.9444 60 23.3333C60 24.5556 59.8478 25.7222 59.5433 26.8333C59.2389 27.9444 58.78 29 58.1667 30C58.7778 31 59.2367 32.07 59.5433 33.21C59.85 34.35 60.0022 35.5022 60 36.6667C60 40.1111 58.8756 43.07 56.6267 45.5433C54.3778 48.0167 51.5856 49.4744 48.25 49.9167C47.9722 52.6944 46.82 55.07 44.7933 57.0433C42.7667 59.0167 40.3356 60.0022 37.5 60C36.1111 60 34.7633 59.7355 33.4567 59.2067C32.15 58.6778 30.9978 57.9422 30 57C28.9444 57.9444 27.7778 58.6811 26.5 59.21C25.2222 59.7389 23.8889 60.0022 22.5 60ZM33.3333 10.8333V49.1667C33.3333 50.3333 33.7367 51.32 34.5433 52.1267C35.35 52.9333 36.3356 53.3356 37.5 53.3333C38.6111 53.3333 39.57 52.8889 40.3767 52C41.1833 51.1111 41.6133 50.1111 41.6667 49C40.5 48.5556 39.4311 47.9589 38.46 47.21C37.4889 46.4611 36.6133 45.5578 35.8333 44.5C35.2778 43.7222 35.07 42.8889 35.21 42C35.35 41.1111 35.8078 40.3889 36.5833 39.8333C37.3589 39.2778 38.1922 39.07 39.0833 39.21C39.9744 39.35 40.6967 39.8078 41.25 40.5833C41.8611 41.4722 42.6389 42.1533 43.5833 42.6267C44.5278 43.1 45.5556 43.3356 46.6667 43.3333C48.5 43.3333 50.07 42.6811 51.3767 41.3767C52.6833 40.0722 53.3356 38.5022 53.3333 36.6667C53.3333 36.3889 53.32 36.1111 53.2933 35.8333C53.2667 35.5556 53.1967 35.2778 53.0833 35C52.1389 35.5556 51.1244 35.9722 50.04 36.25C48.9556 36.5278 47.8311 36.6667 46.6667 36.6667C45.7222 36.6667 44.9311 36.3467 44.2933 35.7067C43.6556 35.0667 43.3356 34.2756 43.3333 33.3333C43.3311 32.3911 43.6511 31.6 44.2933 30.96C44.9356 30.32 45.7267 30 46.6667 30C48.5 30 50.07 29.3478 51.3767 28.0433C52.6833 26.7389 53.3356 25.1689 53.3333 23.3333C53.3311 21.4978 52.6789 19.9422 51.3767 18.6667C50.0744 17.3911 48.5044 16.7244 46.6667 16.6667C46.0556 17.6667 45.2644 18.5422 44.2933 19.2933C43.3222 20.0444 42.2522 20.6411 41.0833 21.0833C40.1944 21.4167 39.3333 21.3889 38.5 21C37.6667 20.6111 37.1111 19.9722 36.8333 19.0833C36.5556 18.1944 36.5978 17.3333 36.96 16.5C37.3222 15.6667 37.9467 15.1111 38.8333 14.8333C39.6667 14.5556 40.3478 14.0556 40.8767 13.3333C41.4056 12.6111 41.6689 11.7778 41.6667 10.8333C41.6667 9.66667 41.2644 8.68111 40.46 7.87667C39.6556 7.07222 38.6689 6.66889 37.5 6.66667C36.3311 6.66444 35.3444 7.06778 34.54 7.87667C33.7356 8.68556 33.3333 9.67111 33.3333 10.8333ZM26.6667 49.1667V10.8333C26.6667 9.66667 26.2633 8.68 25.4567 7.87333C24.65 7.06667 23.6644 6.66444 22.5 6.66667C21.3356 6.66889 20.3489 7.07222 19.54 7.87667C18.7311 8.68111 18.3289 9.66667 18.3333 10.8333C18.3333 11.7222 18.5833 12.5422 19.0833 13.2933C19.5833 14.0444 20.25 14.5578 21.0833 14.8333C21.9722 15.1111 22.6111 15.6667 23 16.5C23.3889 17.3333 23.4444 18.1944 23.1667 19.0833C22.8333 19.9722 22.25 20.6111 21.4167 21C20.5833 21.3889 19.7222 21.4167 18.8333 21.0833C17.6667 20.6389 16.5967 20.0422 15.6233 19.2933C14.65 18.5444 13.8589 17.6689 13.25 16.6667C11.4722 16.7222 9.93111 17.4033 8.62667 18.71C7.32222 20.0167 6.66889 21.5578 6.66667 23.3333C6.66667 25.1667 7.32 26.7367 8.62667 28.0433C9.93333 29.35 11.5022 30.0022 13.3333 30C14.2778 30 15.07 30.32 15.71 30.96C16.35 31.6 16.6689 32.3911 16.6667 33.3333C16.6644 34.2756 16.3444 35.0678 15.7067 35.71C15.0689 36.3522 14.2778 36.6711 13.3333 36.6667C12.1667 36.6667 11.0422 36.5278 9.96 36.25C8.87778 35.9722 7.86333 35.5556 6.91667 35C6.80555 35.2778 6.73667 35.5556 6.71 35.8333C6.68333 36.1111 6.66889 36.3889 6.66667 36.6667C6.66667 38.5 7.32 40.07 8.62667 41.3767C9.93333 42.6833 11.5022 43.3356 13.3333 43.3333C14.4444 43.3333 15.4722 43.0967 16.4167 42.6233C17.3611 42.15 18.1389 41.47 18.75 40.5833C19.3056 39.8056 20.0278 39.3467 20.9167 39.2067C21.8056 39.0667 22.6389 39.2756 23.4167 39.8333C24.1944 40.3911 24.6533 41.1133 24.7933 42C24.9333 42.8867 24.7244 43.72 24.1667 44.5C23.3889 45.5556 22.5 46.4722 21.5 47.25C20.5 48.0278 19.4167 48.6389 18.25 49.0833C18.3056 50.1944 18.75 51.1811 19.5833 52.0433C20.4167 52.9056 21.3889 53.3356 22.5 53.3333C23.6667 53.3333 24.6533 52.93 25.46 52.1233C26.2667 51.3167 26.6689 50.3311 26.6667 49.1667Z" fill="#007BFF"/>
</svg>
