<svg width="70" height="70" viewBox="0 0 70 70" fill="none" xmlns="http://www.w3.org/2000/svg">
<path d="M11.8435 34.9805H10.5086L35.0171 62.9336L55.1443 39.9777H61.3399L35.0171 70L5.40831 36.2688C4.60962 35.3579 3.9022 34.3753 3.28606 33.3212C2.66993 32.2672 2.13366 31.1545 1.67726 29.9833H9.99511L19.6822 18.9738L35.0171 36.425L45.9707 23.971L51.2763 29.9833H63.4279C64.1581 28.6559 64.7172 27.2504 65.1051 25.7669C65.4931 24.2833 65.687 22.7607 65.687 21.1991C65.687 18.9347 65.3162 16.8265 64.5746 14.8745C63.8329 12.9225 62.8174 11.2242 61.5281 9.7797C60.2388 8.33519 58.7327 7.20301 57.0098 6.38316C55.2869 5.5633 53.4328 5.15337 51.4474 5.15337C49.5306 5.15337 47.8305 5.49823 46.3472 6.18795C44.8639 6.87767 43.4947 7.78212 42.2396 8.90128C40.9845 10.0205 39.7808 11.2893 38.6284 12.7078C37.476 14.1262 36.2722 15.5642 35.0171 17.0218C33.7848 15.6163 32.5868 14.1978 31.423 12.7663C30.2592 11.3348 29.044 10.0465 27.7775 8.90128C26.511 7.75609 25.1304 6.81911 23.6357 6.09035C22.141 5.36159 20.458 4.99721 18.5868 4.99721C16.6243 4.99721 14.7816 5.42015 13.0587 6.26603C11.3358 7.11192 9.82967 8.27012 8.54034 9.74066C7.25102 11.2112 6.23553 12.929 5.49389 14.894C4.75224 16.8591 4.38142 18.9608 4.38142 21.1991C4.38142 22.4224 4.50693 23.6847 4.75795 24.9861H0.273839C0.159739 24.3614 0.0855746 23.7368 0.0513447 23.1121C0.0171149 22.4875 0 21.8628 0 21.2381C0 18.2971 0.484923 15.5382 1.45477 12.9615C2.42461 10.3848 3.74817 8.13348 5.42543 6.20747C7.10269 4.28147 9.0709 2.76538 11.3301 1.65923C13.5892 0.553077 16.0082 0 18.5868 0C20.4808 0 22.1695 0.247258 23.6528 0.741774C25.1361 1.23629 26.511 1.9195 27.7775 2.79141C29.044 3.66332 30.2535 4.71091 31.4059 5.93419C32.5583 7.15746 33.762 8.49786 35.0171 9.95538C36.2722 8.49786 37.476 7.15746 38.6284 5.93419C39.7808 4.71091 40.9902 3.66332 42.2567 2.79141C43.5232 1.9195 44.8981 1.23629 46.3814 0.741774C47.8647 0.247258 49.5534 0 51.4474 0C54.0033 0 56.4108 0.553077 58.6699 1.65923C60.9291 2.76538 62.8973 4.26845 64.5746 6.16843C66.2518 8.06841 67.5754 10.3067 68.5452 12.8834C69.5151 15.4601 70 18.206 70 21.121C70 23.6457 69.6121 26.0987 68.8362 28.4802C68.0603 30.8617 66.9535 33.0284 65.5159 34.9805H49.4279L45.9707 30.9983L35.0171 43.5304L19.6822 26.0011L11.8435 34.9805Z" fill="#007BFF"/>
</svg>
