<svg width="32" height="33" viewBox="0 0 32 33" fill="none" xmlns="http://www.w3.org/2000/svg">
<path d="M27.2 0H4.8C3.52696 0 2.30606 0.516162 1.40589 1.43493C0.505713 2.35371 0 3.59983 0 4.89917V27.762C0 29.0613 0.505713 30.3074 1.40589 31.2262C2.30606 32.145 3.52696 32.6612 4.8 32.6612H27.2C28.473 32.6612 29.6939 32.145 30.5941 31.2262C31.4943 30.3074 32 29.0613 32 27.762V4.89917C32 3.59983 31.4943 2.35371 30.5941 1.43493C29.6939 0.516162 28.473 0 27.2 0ZM28.8 27.762C28.8 28.1951 28.6314 28.6105 28.3314 28.9167C28.0313 29.223 27.6243 29.395 27.2 29.395H4.8C4.37565 29.395 3.96869 29.223 3.66863 28.9167C3.36857 28.6105 3.2 28.1951 3.2 27.762V4.89917C3.2 4.46606 3.36857 4.05069 3.66863 3.74443C3.96869 3.43817 4.37565 3.26612 4.8 3.26612H27.2C27.6243 3.26612 28.0313 3.43817 28.3314 3.74443C28.6314 4.05069 28.8 4.46606 28.8 4.89917V27.762ZM24 11.4314H20.8V8.16529C20.8 7.73218 20.6314 7.3168 20.3314 7.01054C20.0313 6.70429 19.6243 6.53223 19.2 6.53223H12.8C12.3757 6.53223 11.9687 6.70429 11.6686 7.01054C11.3686 7.3168 11.2 7.73218 11.2 8.16529V11.4314H8C7.57565 11.4314 7.16869 11.6035 6.86863 11.9097C6.56857 12.216 6.4 12.6313 6.4 13.0645V19.5967C6.4 20.0298 6.56857 20.4452 6.86863 20.7514C7.16869 21.0577 7.57565 21.2298 8 21.2298H11.2V24.4959C11.2 24.929 11.3686 25.3444 11.6686 25.6506C11.9687 25.9569 12.3757 26.1289 12.8 26.1289H19.2C19.6243 26.1289 20.0313 25.9569 20.3314 25.6506C20.6314 25.3444 20.8 24.929 20.8 24.4959V21.2298H24C24.4243 21.2298 24.8313 21.0577 25.1314 20.7514C25.4314 20.4452 25.6 20.0298 25.6 19.5967V13.0645C25.6 12.6313 25.4314 12.216 25.1314 11.9097C24.8313 11.6035 24.4243 11.4314 24 11.4314ZM22.4 17.9636H19.2C18.7757 17.9636 18.3687 18.1357 18.0686 18.4419C17.7686 18.7482 17.6 19.1636 17.6 19.5967V22.8628H14.4V19.5967C14.4 19.1636 14.2314 18.7482 13.9314 18.4419C13.6313 18.1357 13.2243 17.9636 12.8 17.9636H9.6V14.6975H12.8C13.2243 14.6975 13.6313 14.5255 13.9314 14.2192C14.2314 13.913 14.4 13.4976 14.4 13.0645V9.79835H17.6V13.0645C17.6 13.4976 17.7686 13.913 18.0686 14.2192C18.3687 14.5255 18.7757 14.6975 19.2 14.6975H22.4V17.9636Z" fill="#007BFF"/>
</svg>
