<svg width="60" height="66" viewBox="0 0 60 66" fill="none" xmlns="http://www.w3.org/2000/svg">
<path d="M0 29V22.3333H5.25C6.86111 18.5 9.20889 15.2078 12.2933 12.4567C15.3778 9.70556 18.9189 7.77556 22.9167 6.66667L21 4.66667L25.6667 0L29.8333 4.08333C30.5 4.75 30.9311 5.54222 31.1267 6.46C31.3222 7.37778 31.28 8.28 31 9.16667C30.7222 10.1111 30.2222 10.8889 29.5 11.5C28.7778 12.1111 27.9444 12.4722 27 12.5833C23.1667 13.1944 19.7922 14.7644 16.8767 17.2933C13.9611 19.8222 11.9467 22.9467 10.8333 26.6667L10.1667 29H0ZM40 32.3333C40 29.8889 40.4589 27.5556 41.3767 25.3333C42.2944 23.1111 43.78 21.3889 45.8333 20.1667C44.5556 18.5 43.0689 17.07 41.3733 15.8767C39.6778 14.6833 37.8033 13.78 35.75 13.1667L37.6667 6.75C41.1111 7.75 44.1667 9.38889 46.8333 11.6667C49.5 13.9444 51.6667 16.6667 53.3333 19.8333C55.6667 20.9444 57.3611 22.6533 58.4167 24.96C59.4722 27.2667 60 29.7244 60 32.3333C60 34.9422 59.4722 37.4144 58.4167 39.75C57.3611 42.0856 55.6667 43.78 53.3333 44.8333C51.6667 48 49.4722 50.7222 46.75 53C44.0278 55.2778 40.9722 56.9167 37.5833 57.9167L35.6667 51.5C37.6667 50.8889 39.5422 49.9867 41.2933 48.7933C43.0444 47.6 44.5578 46.1689 45.8333 44.5C43.7778 43.2778 42.2911 41.5556 41.3733 39.3333C40.4556 37.1111 39.9978 34.7778 40 32.3333ZM25.25 65.0833L20.5833 60.3333L22.9167 58C18.9167 56.8889 15.3611 54.9589 12.25 52.21C9.13889 49.4611 6.80555 46.1689 5.25 42.3333H0V35.6667H10.1667L10.8333 38C11.9444 41.7222 13.9589 44.8478 16.8767 47.3767C19.7944 49.9056 23.1689 51.4744 27 52.0833C27.9444 52.1944 28.7778 52.57 29.5 53.21C30.2222 53.85 30.7222 54.6133 31 55.5C31.2778 56.3867 31.32 57.2756 31.1267 58.1667C30.9333 59.0578 30.5022 59.8356 29.8333 60.5L25.25 65.0833Z" fill="#007BFF"/>
</svg>
