<svg width="67" height="70" viewBox="0 0 67 70" fill="none" xmlns="http://www.w3.org/2000/svg">
<path d="M0 66.6667V46.6667C0 43.8889 0.972222 41.5278 2.91667 39.5833C4.86111 37.6389 7.22222 36.6667 10 36.6667H16.6667C19.4444 36.6667 21.8056 35.6944 23.75 33.75C25.6944 31.8056 26.6667 29.4444 26.6667 26.6667C26.6667 25.7222 26.3467 24.9311 25.7067 24.2933C25.0667 23.6556 24.2756 23.3356 23.3333 23.3333C21.5 23.3333 19.9311 22.6811 18.6267 21.3767C17.3222 20.0722 16.6689 18.5022 16.6667 16.6667V0H23.3333V16.6667C26.1111 16.6667 28.4722 17.6389 30.4167 19.5833C32.3611 21.5278 33.3333 23.8889 33.3333 26.6667C33.3333 31.2778 31.7078 35.2089 28.4567 38.46C25.2056 41.7111 21.2756 43.3356 16.6667 43.3333H10C9.05555 43.3333 8.26444 43.6533 7.62667 44.2933C6.98889 44.9333 6.66889 45.7244 6.66667 46.6667V66.6667H0ZM30.4167 19.5833C32.3611 21.5278 33.3333 23.8889 33.3333 26.6667C33.3333 31.2778 31.7078 35.2089 28.4567 38.46C25.2056 41.7111 21.2756 43.3356 16.6667 43.3333C21.2778 43.3333 25.2089 41.7078 28.46 38.4567C31.7111 35.2056 33.3356 31.2756 33.3333 26.6667C33.3333 23.8889 32.3611 21.5278 30.4167 19.5833ZM60 35.0833C59.0555 34.1944 58.0278 33.4311 56.9167 32.7933C55.8056 32.1556 54.6111 31.6133 53.3333 31.1667V30C53.3333 25.3889 51.7078 21.4589 48.4567 18.21C45.2056 14.9611 41.2756 13.3356 36.6667 13.3333C34.8333 13.3333 33.2644 12.6811 31.96 11.3767C30.6556 10.0722 30.0022 8.50222 30 6.66667V0H36.6667V6.66667C43.1667 6.66667 48.6811 8.93111 53.21 13.46C57.7389 17.9889 60.0022 23.5022 60 30V35.0833ZM13.3333 66.6667V60C13.3333 57.2222 14.3056 54.8611 16.25 52.9167C18.1944 50.9722 20.5556 50 23.3333 50H26.6667C26.6667 51.1667 26.7644 52.3056 26.96 53.4167C27.1556 54.5278 27.4467 55.6111 27.8333 56.6667H23.3333C22.3889 56.6667 21.5978 56.9867 20.96 57.6267C20.3222 58.2667 20.0022 59.0578 20 60V66.6667H13.3333ZM46.6667 56.6667C48.5 56.6667 50.07 56.0144 51.3767 54.71C52.6833 53.4056 53.3356 51.8356 53.3333 50C53.3311 48.1644 52.6789 46.5956 51.3767 45.2933C50.0744 43.9911 48.5044 43.3378 46.6667 43.3333C44.8289 43.3289 43.26 43.9822 41.96 45.2933C40.66 46.6044 40.0067 48.1733 40 50C39.9933 51.8267 40.6467 53.3967 41.96 54.71C43.2733 56.0233 44.8422 56.6756 46.6667 56.6667ZM61.9167 70L53.4167 61.5C52.4167 62.1111 51.3611 62.57 50.25 62.8767C49.1389 63.1833 47.9444 63.3356 46.6667 63.3333C43 63.3333 39.8611 62.0278 37.25 59.4167C34.6389 56.8056 33.3333 53.6667 33.3333 50C33.3333 46.3333 34.6389 43.1944 37.25 40.5833C39.8611 37.9722 43 36.6667 46.6667 36.6667C50.3333 36.6667 53.4722 37.9722 56.0833 40.5833C58.6944 43.1944 60 46.3333 60 50C60 51.2778 59.8333 52.4867 59.5 53.6267C59.1667 54.7667 58.6944 55.8356 58.0833 56.8333L66.5833 65.3333L61.9167 70Z" fill="#007BFF"/>
</svg>
