<svg width="67" height="64" viewBox="0 0 67 64" fill="none" xmlns="http://www.w3.org/2000/svg">
<path d="M10 63.3333C7.16667 63.3333 4.79222 62.3756 2.87667 60.46C0.961111 58.5444 0.00222222 56.1689 0 53.3333V39.4167L8.75 16C9.41667 14.1667 10.5833 12.7089 12.25 11.6267C13.9167 10.5444 15.7222 10.0022 17.6667 10C20.1667 10 22.2922 10.9033 24.0433 12.71C25.7944 14.5167 26.6689 16.6967 26.6667 19.25V23.3333H20V19.25C20 18.5278 19.75 17.9167 19.25 17.4167C18.75 16.9167 18.1667 16.6667 17.5 16.6667C16.9444 16.6667 16.4311 16.82 15.96 17.1267C15.4889 17.4333 15.1689 17.8356 15 18.3333L6.66667 40.6667V53.3333C6.66667 54.2778 6.98667 55.07 7.62667 55.71C8.26667 56.35 9.05778 56.6689 10 56.6667H20C20.9444 56.6667 21.7367 56.3467 22.3767 55.7067C23.0167 55.0667 23.3356 54.2756 23.3333 53.3333V46.6667H30V53.3333C30 56.1667 29.0278 58.5422 27.0833 60.46C25.1389 62.3778 22.7778 63.3355 20 63.3333H10ZM56.5833 63.3333H46.5833C43.8056 63.3333 41.4444 62.3756 39.5 60.46C37.5556 58.5444 36.5833 56.1689 36.5833 53.3333V46.6667H43.25V53.3333C43.25 54.2778 43.57 55.07 44.21 55.71C44.85 56.35 45.6411 56.6689 46.5833 56.6667H56.5833C57.5278 56.6667 58.32 56.3467 58.96 55.7067C59.6 55.0667 59.9189 54.2756 59.9167 53.3333V40.6667L51.5833 18.3333C51.3611 17.8333 51.0278 17.43 50.5833 17.1233C50.1389 16.8167 49.6389 16.6644 49.0833 16.6667C48.3611 16.6667 47.7644 16.9167 47.2933 17.4167C46.8222 17.9167 46.5856 18.5278 46.5833 19.25V23.3333H39.9167V19.25C39.9167 16.6944 40.7922 14.5133 42.5433 12.7067C44.2944 10.9 46.4189 9.99778 48.9167 10C50.8611 10 52.6533 10.5422 54.2933 11.6267C55.9333 12.7111 57.1133 14.1689 57.8333 16L66.5833 39.4167V53.3333C66.5833 56.1667 65.6111 58.5422 63.6667 60.46C61.7222 62.3778 59.3611 63.3355 56.5833 63.3333ZM33.3333 31.4167L24.6667 40L20 35.3333L30 25.3333V0H36.6667V25.3333L46.6667 35.3333L41.9167 40L33.3333 31.4167Z" fill="#007BFF"/>
</svg>
