<svg width="70" height="64" viewBox="0 0 70 64" fill="none" xmlns="http://www.w3.org/2000/svg">
<path d="M24.5 63.0798V57.2736C23.0417 57.0347 21.7875 56.4975 20.7375 55.6622C19.6875 54.8269 19.0167 53.787 18.725 52.5426L17.5875 46.8081C17.2375 45.04 17.7625 43.4869 19.1625 42.1488C20.5625 40.8107 22.3417 40.1417 24.5 40.1417V36.7727C23.9167 36.9638 23.3473 37.0957 22.792 37.1684C22.2367 37.241 21.6393 37.2764 21 37.2744C15.1667 37.2744 10.2083 35.6019 6.125 32.2567C2.04167 28.9116 0 24.8496 0 20.0709V17.2036C0 12.4248 2.04167 8.36286 6.125 5.01771C10.2083 1.67257 15.1667 0 21 0C23.9167 0 26.3958 0.836286 28.4375 2.50886C30.4792 4.18143 31.5 6.21241 31.5 8.6018C31.5 10.9912 30.4792 13.0222 28.4375 14.6947C26.3958 16.3673 23.9167 17.2036 21 17.2036H14V11.4691H21C21.9917 11.4691 22.8235 11.1938 23.4955 10.6433C24.1675 10.0928 24.5023 9.41228 24.5 8.6018C24.4977 7.79132 24.1617 7.11082 23.492 6.5603C22.8223 6.00979 21.9917 5.73453 21 5.73453C17.15 5.73453 13.8542 6.85754 11.1125 9.10357C8.37083 11.3496 7 14.0496 7 17.2036V20.0709C7 23.2248 8.37083 25.9249 11.1125 28.1709C13.8542 30.4169 17.15 31.5399 21 31.5399C21.9917 31.5399 22.8235 31.2647 23.4955 30.7141C24.1675 30.1636 24.5023 29.4831 24.5 28.6726C24.4977 27.8622 24.1617 27.1817 23.492 26.6312C22.8223 26.0806 21.9917 25.8054 21 25.8054H14V20.0709H21C23.9167 20.0709 26.3958 20.9071 28.4375 22.5797C30.4792 24.2523 31.5 26.2833 31.5 28.6726V40.1417H38.5V28.6726C38.5 26.2833 39.5208 24.2523 41.5625 22.5797C43.6042 20.9071 46.0833 20.0709 49 20.0709H56V25.8054H49C48.0083 25.8054 47.1777 26.0806 46.508 26.6312C45.8383 27.1817 45.5023 27.8622 45.5 28.6726C45.4977 29.4831 45.8337 30.1646 46.508 30.717C47.1823 31.2694 48.013 31.5437 49 31.5399C52.85 31.5399 56.1458 30.4169 58.8875 28.1709C61.6292 25.9249 63 23.2248 63 20.0709V17.2036C63 14.0496 61.6292 11.3496 58.8875 9.10357C56.1458 6.85754 52.85 5.73453 49 5.73453C48.0083 5.73453 47.1777 6.00883 46.508 6.55744C45.8383 7.10604 45.5023 7.78749 45.5 8.6018C45.4977 9.4161 45.8337 10.0976 46.508 10.6462C47.1823 11.1948 48.013 11.4691 49 11.4691H56V17.2036H49C46.0833 17.2036 43.6042 16.3673 41.5625 14.6947C39.5208 13.0222 38.5 10.9912 38.5 8.6018C38.5 6.21241 39.5208 4.18143 41.5625 2.50886C43.6042 0.836286 46.0833 0 49 0C54.8333 0 59.7917 1.67257 63.875 5.01771C67.9583 8.36286 70 12.4248 70 17.2036V20.0709C70 24.8496 67.9583 28.9116 63.875 32.2567C59.7917 35.6019 54.8333 37.2744 49 37.2744C48.3583 37.2744 47.7598 37.2381 47.2045 37.1655C46.6492 37.0929 46.081 36.9629 45.5 36.7755V40.1417C47.6583 40.1417 49.4375 40.8107 50.8375 42.1488C52.2375 43.4869 52.7625 45.04 52.4125 46.8081L51.275 52.5426C50.9833 53.7851 50.3125 54.825 49.2625 55.6622C48.2125 56.4995 46.9583 57.0366 45.5 57.2736V63.0798H38.5V57.3453H31.5V63.0798H24.5Z" fill="#007BFF"/>
</svg>
