<svg width="75" height="64" viewBox="0 0 75 64" fill="none" xmlns="http://www.w3.org/2000/svg">
<path d="M0 63.0798V33.1879C0 31.3612 0.735 29.798 2.205 28.4982C3.675 27.1985 5.44 26.5475 7.5 26.5453H26.25V33.1879C26.25 35.9557 27.3437 38.3083 29.5312 40.2457C31.7187 42.1832 34.375 43.1519 37.5 43.1519C40.625 43.1519 43.2812 42.1832 45.4687 40.2457C47.6562 38.3083 48.75 35.9557 48.75 33.1879V26.5453H67.5C69.5625 26.5453 71.3287 27.1963 72.7987 28.4982C74.2687 29.8002 75.0025 31.3634 75 33.1879V63.0798H0ZM7.5 56.4372H67.5V33.1879H56.25C56.25 37.7824 54.4212 41.6994 50.7637 44.9388C47.1062 48.1782 42.685 49.7968 37.5 49.7945C32.315 49.7923 27.8937 48.1726 24.2362 44.9354C20.5788 41.6983 18.75 37.7824 18.75 33.1879H7.5V56.4372ZM37.5 36.5093C36.4375 36.5093 35.5475 36.1904 34.83 35.5527C34.1125 34.915 33.7525 34.1268 33.75 33.1879C33.75 27.1542 34.5312 21.2035 36.0937 15.3358C37.6562 9.46816 41.0625 4.62457 46.3125 0.805048C47.125 0.196139 48.0312 -0.0673526 49.0312 0.0145734C50.0312 0.0964993 50.875 0.498379 51.5625 1.22021C52.25 1.94205 52.5475 2.7447 52.455 3.62817C52.3625 4.51164 51.9087 5.25894 51.0937 5.87006C46.7187 9.13603 43.985 13.2323 42.8925 18.159C41.8 23.0856 41.2525 28.0952 41.25 33.1879C41.25 34.129 40.89 34.9183 40.17 35.556C39.45 36.1937 38.56 36.5115 37.5 36.5093ZM14.0625 44.8126C14.875 44.8126 15.5475 44.5767 16.08 44.1051C16.6125 43.6335 16.8775 43.039 16.875 42.3216C16.8725 41.6042 16.6062 41.0096 16.0763 40.538C15.5463 40.0664 14.875 39.8306 14.0625 39.8306C13.25 39.8306 12.5787 40.0664 12.0487 40.538C11.5187 41.0096 11.2525 41.6042 11.25 42.3216C11.2475 43.039 11.5137 43.6346 12.0487 44.1084C12.5837 44.5823 13.255 44.817 14.0625 44.8126ZM17.8125 53.1159C18.625 53.1159 19.2975 52.8801 19.83 52.4084C20.3625 51.9368 20.6275 51.3423 20.625 50.6249C20.6225 49.9075 20.3562 49.313 19.8263 48.8413C19.2963 48.3697 18.625 48.1339 17.8125 48.1339C17 48.1339 16.3287 48.3697 15.7987 48.8413C15.2687 49.313 15.0025 49.9075 15 50.6249C14.9975 51.3423 15.2637 51.9379 15.7987 52.4117C16.3337 52.8856 17.005 53.1203 17.8125 53.1159ZM60.9375 44.8126C61.75 44.8126 62.4225 44.5767 62.955 44.1051C63.4875 43.6335 63.7525 43.039 63.75 42.3216C63.7475 41.6042 63.4812 41.0096 62.9512 40.538C62.4212 40.0664 61.75 39.8306 60.9375 39.8306C60.125 39.8306 59.4537 40.0664 58.9237 40.538C58.3937 41.0096 58.1275 41.6042 58.125 42.3216C58.1225 43.039 58.3887 43.6346 58.9237 44.1084C59.4587 44.5823 60.13 44.817 60.9375 44.8126Z" fill="#007BFF"/>
</svg>
