<svg width="26" height="26" viewBox="0 0 26 26" fill="none" xmlns="http://www.w3.org/2000/svg">
<path d="M0 2.29412C0 1.02757 1.02757 0 2.29412 0H4.58824C5.43419 0 6.11765 0.683456 6.11765 1.52941C6.11765 2.37537 5.43419 3.05882 4.58824 3.05882H3.05882V9.17647C3.05882 11.7096 5.11397 13.7647 7.64706 13.7647C10.1801 13.7647 12.2353 11.7096 12.2353 9.17647V3.05882H10.7059C9.85993 3.05882 9.17647 2.37537 9.17647 1.52941C9.17647 0.683456 9.85993 0 10.7059 0H13C14.2665 0 15.2941 1.02757 15.2941 2.29412V9.17647C15.2941 12.8757 12.6654 15.9632 9.17647 16.6706V17.5882C9.17647 20.5467 11.571 22.9412 14.5294 22.9412C17.4879 22.9412 19.8824 20.5467 19.8824 17.5882V13.5018C18.0996 12.871 16.8235 11.1743 16.8235 9.17647C16.8235 6.64338 18.8787 4.58824 21.4118 4.58824C23.9449 4.58824 26 6.64338 26 9.17647C26 11.1743 24.7239 12.8757 22.9412 13.5018V17.5882C22.9412 22.2338 19.175 26 14.5294 26C9.88382 26 6.11765 22.2338 6.11765 17.5882V16.6706C2.62868 15.9632 0 12.8757 0 9.17647V2.29412ZM21.4118 10.7059C22.2577 10.7059 22.9412 10.0224 22.9412 9.17647C22.9412 8.33051 22.2577 7.64706 21.4118 7.64706C20.5658 7.64706 19.8824 8.33051 19.8824 9.17647C19.8824 10.0224 20.5658 10.7059 21.4118 10.7059Z" fill="white"/>
</svg>
