<svg width="80" height="64" viewBox="0 0 80 64" fill="none" xmlns="http://www.w3.org/2000/svg">
<path fill-rule="evenodd" clip-rule="evenodd" d="M0 57.8232C0 59.2173 0.702379 60.5544 1.95262 61.5402C3.20286 62.526 4.89856 63.0798 6.66667 63.0798H73.3333C75.1014 63.0798 76.7971 62.526 78.0474 61.5402C79.2976 60.5544 80 59.2173 80 57.8232V5.25665C80 3.8625 79.2976 2.52545 78.0474 1.53964C76.7971 0.553824 75.1014 0 73.3333 0H6.66667C4.89856 0 3.20286 0.553824 1.95262 1.53964C0.702379 2.52545 0 3.8625 0 5.25665V57.8232ZM75.5556 5.25665C75.5556 4.79194 75.3214 4.34625 74.9047 4.01765C74.4879 3.68904 73.9227 3.50444 73.3333 3.50444H25.1444L25.1467 8.30551C25.2222 14.6275 26.26 17.7272 28.2978 19.383C30.0889 20.8374 33.1067 21.5418 38.7733 21.6732C39.2222 18.1057 41.0267 15.2601 43.6778 13.2327C46.7289 10.8988 50.7711 9.75109 54.7689 9.75109C58.7689 9.75109 62.8111 10.8988 65.8622 13.2327C68.94 15.586 70.8756 19.0431 70.8756 23.4482V38.0494C70.8756 42.1741 70.0067 46.5406 67.3156 49.9294C64.5222 53.4444 59.9022 55.7293 53.0711 55.7293C46.0422 55.7293 41.1622 52.4299 36.8489 49.4966L36.7133 49.402C32.3222 46.4145 28.3756 43.7301 22.78 43.1203C20.4267 43.1378 18.7933 43.6355 17.62 44.3136C16.4 45.018 15.5267 46.0062 14.9089 47.1469C13.6422 49.4826 13.6 52.1723 13.6622 53.3287C13.6733 53.5565 13.68 56.0412 13.6844 58.3751V59.5754H73.3333C73.9227 59.5754 74.4879 59.3908 74.9047 59.0622C75.3214 58.7336 75.5556 58.2879 75.5556 57.8232V5.25665ZM4.44444 5.25665C4.44444 4.79194 4.67857 4.34625 5.09532 4.01765C5.51207 3.68904 6.0773 3.50444 6.66667 3.50444H20.7L20.7022 8.34056C20.7778 14.596 21.7089 19.0606 25.1089 21.8239C28.1667 24.3085 32.7556 25.0444 38.6422 25.1776C38.3867 33.8195 36.22 37.1242 33.94 38.4717C32.7311 39.1866 31.2444 39.5073 29.3511 39.6194C28.0556 39.6965 26.7844 39.672 25.38 39.6457C24.5602 39.6266 23.7401 39.6161 22.92 39.6141C19.6556 39.6141 17.0356 40.308 14.9933 41.4873C12.9711 42.6542 11.6644 44.212 10.82 45.7714C9.15778 48.8378 9.15333 52.1635 9.22 53.4742V53.4829L9.22222 53.5881L9.22445 53.9315L9.23111 55.0722L9.24 58.3804V59.5754H6.66667C6.0773 59.5754 5.51207 59.3908 5.09532 59.0622C4.67857 58.7336 4.44444 58.2879 4.44444 57.8232V5.25665ZM42.2889 32.3564C47.6133 30.3291 51.7111 31.971 55.5778 33.5182C59.1333 34.941 62.4933 36.2867 66.4311 34.6308V23.4482C66.4311 19.8912 64.8978 17.375 62.7667 15.7472C60.6111 14.1001 57.7111 13.2555 54.7711 13.2555C51.8289 13.2555 48.9267 14.1001 46.7711 15.7472C44.6444 17.3767 43.1089 19.8912 43.1089 23.4482C43.1089 26.9719 42.8333 29.9139 42.2889 32.3564Z" fill="#007BFF"/>
</svg>
