<svg width="80" height="60" viewBox="0 0 80 60" fill="none" xmlns="http://www.w3.org/2000/svg">
<path d="M29.4545 59.9258L26.8182 55.2162C26.2727 54.2959 25.8788 53.3486 25.6364 52.3742C25.3939 51.3998 25.2727 50.3983 25.2727 49.3698C25.2727 48.1247 25.4703 46.8937 25.8655 45.6768C26.2606 44.4599 26.8812 43.309 27.7273 42.2242C28.2121 41.6287 28.5758 40.9932 28.8182 40.3176C29.0606 39.642 29.1818 38.9242 29.1818 38.1642C29.1818 37.298 29 36.486 28.6364 35.7281L27.5455 33.4545C26.9394 32.426 26.4388 31.3704 26.0436 30.2877C25.6485 29.205 25.4521 28.0953 25.4545 26.9585V14.6161C25.4545 13.2627 24.9249 12.1129 23.8655 11.1667C22.8061 10.2204 21.5176 9.7462 20 9.74404C18.7273 9.74404 17.6061 10.123 16.6364 10.8808C15.6667 11.6387 15.0303 12.559 14.7273 13.6417C16.7879 14.3454 18.4848 15.5223 19.8182 17.1722C21.1515 18.8222 21.8182 20.6768 21.8182 22.7361C21.8182 25.4428 20.7576 27.7434 18.6364 29.6381C16.5152 31.5328 13.9394 32.4801 10.9091 32.4801C7.87879 32.4801 5.30303 31.5328 3.18182 29.6381C1.06061 27.7434 0 25.4428 0 22.7361C0 20.5707 0.69697 18.649 2.09091 16.9709C3.48485 15.2927 5.27273 14.1289 7.45455 13.4793C7.75758 10.556 9.10667 8.12003 11.5018 6.17122C13.897 4.22242 16.7297 3.24801 20 3.24801C20.4242 3.24801 20.8485 3.26101 21.2727 3.28699C21.697 3.31297 22.1212 3.38118 22.5455 3.49161C25.2121 2.24654 28.0145 1.35334 30.9527 0.812003C33.8909 0.270668 36.9067 0 40 0C43.0303 0 46.0158 0.270668 48.9564 0.812003C51.897 1.35334 54.6994 2.24654 57.3636 3.49161C57.7879 3.38335 58.2121 3.31514 58.6364 3.28699C59.0606 3.25884 59.4849 3.24585 59.9091 3.24801C63.2424 3.24801 66.1067 4.22242 68.5018 6.17122C70.897 8.12003 72.2449 10.556 72.5455 13.4793C74.7273 14.1289 76.5152 15.2927 77.9091 16.9709C79.303 18.649 80 20.5707 80 22.7361C80 25.4428 78.9394 27.7434 76.8182 29.6381C74.697 31.5328 72.1212 32.4801 69.0909 32.4801C66.0606 32.4801 63.4849 31.5328 61.3636 29.6381C59.2424 27.7434 58.1818 25.4428 58.1818 22.7361C58.1818 20.679 58.8485 18.8244 60.1818 17.1722C61.5152 15.5201 63.2121 14.3432 65.2727 13.6417C64.9697 12.559 64.3333 11.6387 63.3636 10.8808C62.3939 10.123 61.2424 9.74404 59.9091 9.74404C58.3939 9.74404 57.1212 10.2182 56.0909 11.1667C55.0606 12.1151 54.5455 13.2649 54.5455 14.6161V26.9585C54.5455 28.0953 54.3333 29.205 53.9091 30.2877C53.4848 31.3704 53 32.426 52.4545 33.4545C52.0303 34.2124 51.6509 34.9703 51.3164 35.7281C50.9818 36.486 50.8158 37.298 50.8182 38.1642C50.8182 38.922 50.9394 39.6398 51.1818 40.3176C51.4242 40.9953 51.7879 41.6309 52.2727 42.2242C53.0606 43.3068 53.6667 44.4577 54.0909 45.6768C54.5152 46.8959 54.7273 48.1269 54.7273 49.3698C54.7273 50.3983 54.5915 51.3998 54.32 52.3742C54.0485 53.3486 53.6691 54.2959 53.1818 55.2162L50.5455 59.9258L44 57.0026L46.6364 52.293C46.9394 51.8599 47.1515 51.3998 47.2727 50.9126C47.3939 50.4254 47.4545 49.9111 47.4545 49.3698C47.4545 48.7202 47.3333 48.0977 47.0909 47.5022C46.8485 46.9067 46.5455 46.3383 46.1818 45.797C45.3333 44.7143 44.6824 43.5234 44.2291 42.2242C43.7758 40.925 43.5479 39.5987 43.5455 38.2453C43.5455 37.0003 43.743 35.8223 44.1382 34.7115C44.5333 33.6007 45.063 32.505 45.7273 31.4245C46.0909 30.6667 46.44 29.9229 46.7745 29.1931C47.1091 28.4634 47.2752 27.7185 47.2727 26.9585V14.6161C47.2727 13.3169 47.5006 12.0859 47.9564 10.9231C48.4121 9.76028 49.063 8.6906 49.9091 7.71403C48.3333 7.28096 46.7127 6.96915 45.0473 6.7786C43.3818 6.58805 41.6994 6.49386 40 6.49603C38.3006 6.49819 36.6182 6.59347 34.9527 6.78185C33.2873 6.97023 31.6667 7.28096 30.0909 7.71403C30.9394 8.68843 31.5915 9.75811 32.0473 10.9231C32.503 12.088 32.7297 13.319 32.7273 14.6161V26.9585C32.7273 27.7164 32.8788 28.4742 33.1818 29.2321C33.4848 29.99 33.8485 30.7208 34.2727 31.4245C34.8788 32.5072 35.3939 33.6039 35.8182 34.7148C36.2424 35.8256 36.4545 37.0024 36.4545 38.2453C36.4545 39.5987 36.2279 40.912 35.7745 42.1852C35.3212 43.4584 34.6691 44.6623 33.8182 45.797C33.3939 46.3383 33.0764 46.9067 32.8655 47.5022C32.6545 48.0977 32.5479 48.7202 32.5455 49.3698C32.5455 49.9111 32.6061 50.4254 32.7273 50.9126C32.8485 51.3998 33.0606 51.8599 33.3636 52.293L36 57.0026L29.4545 59.9258Z" fill="#007BFF"/>
</svg>
