<svg width="54" height="53" viewBox="0 0 54 53" fill="none" xmlns="http://www.w3.org/2000/svg">
<path d="M26.6667 52.525C24.1111 52.525 20.9033 52.2184 17.0433 51.6051C13.1833 50.9918 10.3911 50.3566 8.66667 49.6996C8.05556 49.4805 7.57 49.152 7.21 48.7139C6.85 48.2759 6.66889 47.794 6.66667 47.2684V44.64H3.33333C2.38889 44.64 1.59778 44.3877 0.96 43.8831C0.322223 43.3784 0.00222222 42.7547 0 42.0117V38.0692C0 37.3245 0.32 36.7007 0.96 36.1979C1.6 35.695 2.39111 35.4426 3.33333 35.4409H6.66667V30.1842H3.33333C2.38889 30.1842 1.59778 29.9328 0.96 29.4299C0.322223 28.927 0.00222222 28.3024 0 27.5559V23.6134C0 22.8687 0.32 22.2449 0.96 21.7421C1.6 21.2392 2.39111 20.9869 3.33333 20.9851H6.66667V15.7285H3.33333C2.38889 15.7285 1.59778 15.477 0.96 14.9741C0.322223 14.4712 0.00222222 13.8466 0 13.1001V9.15764C0 8.41295 0.32 7.78916 0.96 7.28627C1.6 6.78339 2.39111 6.53107 3.33333 6.52931H6.66667V2.58683C6.66667 1.62311 7.16667 0.900317 8.16667 0.418457C9.16667 -0.0634025 10.2222 -0.129111 11.3333 0.221333C11.3889 0.221333 12.9167 0.615582 15.9167 1.40408C18.9167 2.19258 22.5 2.58683 26.6667 2.58683C30.8333 2.58683 34.4167 2.19258 37.4167 1.40408C40.4167 0.615582 41.9444 0.221333 42 0.221333C43.1111 -0.129111 44.1667 -0.0520131 45.1667 0.452626C46.1667 0.957264 46.6667 1.66866 46.6667 2.58683V6.52931H50C50.9444 6.52931 51.7367 6.78076 52.3767 7.28364C53.0167 7.78653 53.3356 8.4112 53.3333 9.15764V13.1001C53.3333 13.8448 53.0133 14.4695 52.3733 14.9741C51.7333 15.4788 50.9422 15.7302 50 15.7285H46.6667V20.9851H50C50.9444 20.9851 51.7367 21.2374 52.3767 21.7421C53.0167 22.2467 53.3356 22.8705 53.3333 23.6134V27.5559C53.3333 28.3006 53.0133 28.9253 52.3733 29.4299C51.7333 29.9346 50.9422 30.186 50 30.1842H46.6667V35.4409H50C50.9444 35.4409 51.7367 35.6932 52.3767 36.1979C53.0167 36.7025 53.3356 37.3263 53.3333 38.0692V42.0117C53.3333 42.7564 53.0133 43.3811 52.3733 43.8857C51.7333 44.3904 50.9422 44.6418 50 44.64H46.6667V47.2684C46.6667 47.794 46.4867 48.2759 46.1267 48.7139C45.7667 49.152 45.28 49.4805 44.6667 49.6996C42.9444 50.3566 40.1533 50.9918 36.2933 51.6051C32.4333 52.2184 29.2244 52.525 26.6667 52.525ZM26.6667 17.4369C28.7778 17.4369 31.0144 17.2836 33.3767 16.9769C35.7389 16.6703 37.9467 16.2322 40 15.6627V6.26648C37.8889 6.74834 35.6811 7.13208 33.3767 7.41769C31.0722 7.7033 28.8356 7.84523 26.6667 7.84348C24.5556 7.84348 22.3478 7.70155 20.0433 7.41769C17.7389 7.13383 15.5022 6.75009 13.3333 6.26648V15.6627C15.3333 16.2322 17.5278 16.6703 19.9167 16.9769C22.3056 17.2836 24.5556 17.4369 26.6667 17.4369ZM26.6667 32.4183C28.7222 32.4183 30.9311 32.265 33.2933 31.9584C35.6556 31.6517 37.8911 31.1918 40 30.5785V21.1165C37.5556 21.6422 35.2367 22.0364 33.0433 22.2993C30.85 22.5621 28.7244 22.6935 26.6667 22.6935C24.5 22.6935 22.2778 22.5621 20 22.2993C17.7222 22.0364 15.5 21.6422 13.3333 21.1165V30.5785C15.4444 31.1918 17.6811 31.6517 20.0433 31.9584C22.4056 32.265 24.6133 32.4183 26.6667 32.4183ZM26.6667 47.2684C28.7778 47.2684 31.0144 47.115 33.3767 46.8084C35.7389 46.5018 37.9467 46.0637 40 45.4942V36.098C37.8889 36.5798 35.6811 36.9636 33.3767 37.2492C31.0722 37.5348 28.8356 37.6767 26.6667 37.675C24.5556 37.675 22.3478 37.533 20.0433 37.2492C17.7389 36.9653 15.5022 36.5816 13.3333 36.098V45.4942C15.3333 46.0637 17.5278 46.5018 19.9167 46.8084C22.3056 47.115 24.5556 47.2684 26.6667 47.2684Z" fill="#007BFF"/>
</svg>
