<svg width="67" height="60" viewBox="0 0 67 60" fill="none" xmlns="http://www.w3.org/2000/svg">
<path d="M23.3333 60V46.0833C22.7778 46.3056 22.2356 46.4589 21.7067 46.5433C21.1778 46.6278 20.6089 46.6689 20 46.6667C14.4444 46.6667 9.72222 44.7222 5.83333 40.8333C1.94444 36.9444 0 32.2222 0 26.6667V20C0 14.4444 1.94444 9.72222 5.83333 5.83333C9.72222 1.94444 14.4444 0 20 0C22.7778 0 25.1389 0.972222 27.0833 2.91667C29.0278 4.86111 30 7.22222 30 10C30 12.7778 29.0278 15.1389 27.0833 17.0833C25.1389 19.0278 22.7778 20 20 20H13.3333V13.3333H20C20.9444 13.3333 21.7367 13.0133 22.3767 12.3733C23.0167 11.7333 23.3356 10.9422 23.3333 10C23.3311 9.05778 23.0111 8.26667 22.3733 7.62667C21.7356 6.98667 20.9444 6.66667 20 6.66667C16.3333 6.66667 13.1944 7.97222 10.5833 10.5833C7.97222 13.1944 6.66667 16.3333 6.66667 20V26.6667C6.66667 30.3333 7.97222 33.4722 10.5833 36.0833C13.1944 38.6944 16.3333 40 20 40C20.9444 40 21.7367 39.68 22.3767 39.04C23.0167 38.4 23.3356 37.6089 23.3333 36.6667C23.3311 35.7244 23.0111 34.9333 22.3733 34.2933C21.7356 33.6533 20.9444 33.3333 20 33.3333H13.3333V26.6667H20C22.7778 26.6667 25.1389 27.6389 27.0833 29.5833C29.0278 31.5278 30 33.8889 30 36.6667V60H23.3333ZM36.6667 60V36.6667C36.6667 33.8889 37.6389 31.5278 39.5833 29.5833C41.5278 27.6389 43.8889 26.6667 46.6667 26.6667H53.3333V33.3333H46.6667C45.7222 33.3333 44.9311 33.6533 44.2933 34.2933C43.6556 34.9333 43.3356 35.7244 43.3333 36.6667C43.3311 37.6089 43.6511 38.4011 44.2933 39.0433C44.9356 39.6856 45.7267 40.0044 46.6667 40C50.3333 40 53.4722 38.6944 56.0833 36.0833C58.6944 33.4722 60 30.3333 60 26.6667V20C60 16.3333 58.6944 13.1944 56.0833 10.5833C53.4722 7.97222 50.3333 6.66667 46.6667 6.66667C45.7222 6.66667 44.9311 6.98667 44.2933 7.62667C43.6556 8.26667 43.3356 9.05778 43.3333 10C43.3311 10.9422 43.6511 11.7344 44.2933 12.3767C44.9356 13.0189 45.7267 13.3378 46.6667 13.3333H53.3333V20H46.6667C43.8889 20 41.5278 19.0278 39.5833 17.0833C37.6389 15.1389 36.6667 12.7778 36.6667 10C36.6667 7.22222 37.6389 4.86111 39.5833 2.91667C41.5278 0.972222 43.8889 0 46.6667 0C52.2222 0 56.9444 1.94444 60.8333 5.83333C64.7222 9.72222 66.6667 14.4444 66.6667 20V26.6667C66.6667 32.2222 64.7222 36.9444 60.8333 40.8333C56.9444 44.7222 52.2222 46.6667 46.6667 46.6667C46.0556 46.6667 45.4856 46.6244 44.9567 46.54C44.4278 46.4556 43.8867 46.3033 43.3333 46.0833V60H36.6667Z" fill="#007BFF"/>
</svg>
